<?xml version="1.0" standalone="no"?>
<!DOCTYPE svg PUBLIC "-//W3C//DTD SVG 20010904//EN"
 "http://www.w3.org/TR/2001/REC-SVG-20010904/DTD/svg10.dtd">
<svg version="1.0" xmlns="http://www.w3.org/2000/svg"
 width="512.000000pt" height="512.000000pt" viewBox="0 0 512.000000 512.000000"
 preserveAspectRatio="xMidYMid meet">

<g transform="translate(0.000000,512.000000) scale(0.100000,-0.100000)"
fill="#000000" stroke="none">
<path d="M2505 5110 c-523 -55 -967 -248 -1351 -588 -186 -164 -417 -481 -400
-548 8 -31 45 -64 72 -64 33 0 58 26 121 127 184 292 444 523 781 692 230 116
459 185 732 222 121 16 425 16 555 0 399 -50 765 -192 1040 -406 173 -135 320
-318 392 -489 47 -111 70 -217 83 -376 30 -375 -66 -660 -292 -864 -97 -89
-225 -169 -424 -266 -185 -91 -214 -114 -199 -160 4 -13 -8 -23 -56 -44 -61
-26 -62 -26 -83 -8 -41 38 -60 36 -189 -19 -371 -158 -547 -276 -681 -459
-100 -136 -148 -254 -217 -539 -62 -254 -102 -346 -186 -430 -114 -114 -304
-183 -508 -185 -130 -1 -213 18 -320 71 -220 110 -424 358 -564 684 -273 636
-301 1488 -70 2144 24 68 37 120 33 131 -13 35 -37 54 -68 54 -58 0 -71 -20
-125 -183 -80 -246 -120 -454 -142 -740 -16 -206 -6 -889 15 -1062 74 -617
303 -1142 636 -1458 256 -244 561 -361 892 -343 238 12 397 96 539 285 52 68
62 110 35 146 -12 17 -10 27 17 82 27 54 35 63 59 63 60 0 70 19 213 420 78
217 147 366 203 436 22 28 69 70 105 92 74 47 368 196 527 267 553 248 805
452 927 751 69 169 75 222 80 664 5 435 -3 582 -42 737 -146 575 -748 1025
-1530 1144 -147 23 -479 33 -610 19z"/>
<path d="M2495 4690 c-211 -24 -443 -90 -630 -179 -452 -215 -758 -571 -920
-1066 -242 -744 -141 -1702 232 -2199 208 -278 480 -367 777 -256 121 46 172
134 286 489 40 124 90 268 113 320 145 339 335 533 632 647 626 241 870 368
1075 561 209 196 295 381 294 633 -1 149 -25 236 -100 365 -61 104 -234 278
-358 359 -232 153 -527 264 -826 311 -123 19 -458 28 -575 15z m274 -886 c132
-29 221 -105 221 -187 0 -34 -7 -46 -47 -87 -75 -74 -139 -95 -293 -95 -108 0
-133 4 -185 24 -33 13 -79 43 -103 65 -83 79 -65 166 47 233 98 59 233 77 360
47z"/>
</g>
</svg>
